<?xml version="1.0" encoding="utf-8"?>
<!-- Generator: Adobe Illustrator 19.2.1, SVG Export Plug-In . SVG Version: 6.00 Build 0)  -->
<svg version="1.1" id="Layer_1" xmlns="http://www.w3.org/2000/svg" xmlns:xlink="http://www.w3.org/1999/xlink" x="0px" y="0px"
	 viewBox="0 0 214 54" style="enable-background:new 0 0 214 54;" xml:space="preserve">
<style type="text/css">
	.st0{fill:#CDB54B;}
	.st1{fill:#A09F9F;}
</style>
<g>
	<path class="st0" d="M34.8,41.3L34.8,41.3c-0.5-1.9-0.4-3.3-0.1-4.4c0.3-1.1,0.9-2,1.4-2.7c1.1-1.3,1.2-2.5,1.2-2.5l0,0
		c0.2-1-0.2-1.4-0.9-2c-0.2-0.2-0.3-0.3-0.5-0.5c-0.9-0.9-0.9-1.8-0.9-2.1L35,27l0,0l-0.1,0c-1.4-1-3.5-2.8-5.3-5.5
		c-1.3-1.9-2.4-4.1-3-6.9c-1.5-6.1-0.2-12.8,0-13.8c-4.1,1.5-5.4,4.9-5.5,5.2c0.1,0.3,0.8,4.9,4.4,11.5c1.6,3,3.7,5.3,5.5,6.8
		c1.8,1.6,3.3,2.4,3.8,2.7l0.1,0.1l-0.1,0.1C34,27.9,33.3,29,33.3,29l0,0c0,0-0.1,0.1-0.1,0.1c0,0,0,0.1-0.1,0.1l0,0.1l-0.1,0
		c-6-2.2-9.9-9.7-9.9-9.7l0,0C20.2,13,20.5,8.1,20.6,7.1c-3.3,1.9-4,4.8-4,5.2c0.2,0.4,3.1,6.7,7,11.1c1.8,2,3.8,3.4,5.6,4.3
		c1.7,0.9,3.2,1.4,3.7,1.6l0.1,0l-0.1,0.1c-0.3,0.4-0.5,0.8-0.8,1.2c-0.2,0.4-0.4,0.8-0.6,1.2l0,0.1l-0.1,0
		c-1.4-0.3-3.2-0.9-5.3-2.1c-1.6-1-3.3-2.3-5-4c-3.8-4-5.4-10.1-5.7-11c-2.8,2.3-2.5,4.9-2.5,5.2c3.8,5.2,7.9,8.2,11.3,9.9
		c3.4,1.7,6.1,2.2,6.9,2.3l0.1,0l0,0.1c-0.1,0.4-0.3,0.8-0.3,1.1c-0.1,0.4-0.2,0.8-0.2,1.2l0,0.1l-0.1,0c-1,0.1-2.5,0-4.2-0.3
		c-1.7-0.3-3.7-0.9-5.6-2.1c-4.8-3-8-7.8-8.5-8.6c-1.8,2.5-1.1,4.6-1,4.8c0.4,0.3,5.8,3.9,10.1,5.5c1.9,0.7,3.9,1,5.6,1
		c1.7,0.1,3,0,3.6-0.1l0.1,0l0,0.1c-0.1,1.3,0.1,2.1,0.1,2.1l0,0c0,0,0,0.1,0,0.2c0,0.1,0,0.1,0,0.2l0,0.1l-0.1,0
		c-0.9,0.4-2.3,0.7-4,0.6c-1.5,0-3.2-0.3-5.2-0.8c-4.6-1.3-8.6-4.9-9.2-5.6c-0.7,1.7,0.1,3.9,0.3,4.2c0.5,0.2,7.3,2.7,11.3,2.8
		c1.8,0,3.3-0.2,4.5-0.4c1.2-0.3,2-0.5,2.3-0.7l0.1,0l0,0.1c0.1,0.4,0.2,0.8,0.3,1.2c0.1,0.4,0.3,0.8,0.4,1.2l0,0.1l-0.1,0
		c-0.5,0.3-1.4,0.8-2.6,1.1c-1.2,0.4-2.8,0.6-4.7,0.5c-4.6-0.2-8.7-2.4-9.4-2.9c-0.1,1.6,0.8,3.1,0.9,3.4c0.4,0.1,4.6,0.9,9.2,0.4
		c2-0.2,3.5-0.7,4.6-1.2c1.1-0.5,1.8-0.9,2.1-1.2l0.1-0.1l0,0.1c0.2,0.4,0.4,0.8,0.6,1.1c0.2,0.4,0.4,0.7,0.7,1.1l0,0.1l-0.1,0.1
		c-0.4,0.3-1.1,0.9-2.1,1.4c-1,0.6-2.3,1.1-3.8,1.4c-3.3,0.6-7.5-0.5-8.2-0.7c0.1,1.7,1.2,2.6,1.3,2.7c2.5,0,5.3-0.5,7.8-1.4
		c2.2-0.8,4.1-1.9,5-3.2l0.1-0.1l0.1,0.1c0.3,0.4,0.6,0.7,0.8,1c0.3,0.4,0.6,0.7,0.9,1l0.1,0l0,0.1c-0.2,0.4-0.7,0.9-1.3,1.4
		c-0.7,0.5-1.6,1.1-3,1.7c-3,1.4-5.9,1.1-6.5,1c0.1,1.1,1.1,1.7,1.3,1.9c3.2-0.7,5.5-1.9,7-3.1c1.5-1.2,2.3-2.3,2.6-2.8l0.1-0.1
		l0.1,0.1c0.2,0.2,0.4,0.3,0.5,0.4c0.2,0.2,0.4,0.3,0.5,0.4c0.2,0.1,0.4,0.3,0.6,0.4c0.2,0.1,0.4,0.3,0.6,0.4l0.1,0l0,0.1
		c-0.7,1.8-2.1,2.7-2.1,2.7l0,0c-2.1,1.7-4.7,2.2-5.3,2.3c0.3,0.7,0.8,1.1,1,1.2c2.4-0.8,4-2.2,4.9-3.4c1-1.2,1.4-2.3,1.5-2.6l0-0.1
		l0.1,0.1c0.4,0.2,0.8,0.5,1.1,0.6c0.4,0.2,0.8,0.3,1.2,0.4c0.7,0.1,1.2,0.2,1.6,0.2c0.4,0,0.9,0,1.4,0c0.6,0,0.9,0,1.2,0
		c0.3,0.1,0.5,0.2,0.6,0.4c0.1,0.2,0.1,0.4,0.1,0.7c-0.1,0.3-0.2,0.6-0.3,0.8c0,0.1-0.1,0.1-0.1,0.1c0.1,0,0.3,0,0.7-0.1
		c0.8-0.2,1.3-0.8,1.3-0.8l0.1-0.1l0.1,0c0.3,0.2,0.5,0.5,0.7,0.8c0.3,0.5,0.5,1.1,0.5,1.3c0,0.2,0.1,0.2,0.1,0.2
		c0.1-1.9,0.3-3.5,0.7-4.7c0.4-1.5,1-2.6,1.6-3.3c0.6-0.7,0.9-1.1,1.4-1.2c0.4-0.1,0.9-0.1,1.7,0.1c0.9,0.2,1.2,0.1,1.4,0
		c0.2-0.1,0.3-0.1,0.5,0c0.2,0.1,0.4,0.4,0.4,0.7c0.1,0.3,0.1,0.7,0,1.1c-0.1,0.4,0.1,0.3,0.2,0.3c0.1,0,0.1-0.1,0.2-0.1
		c1.5-0.9,1.6-2.7,0.7-4.2c-1-1.6-3.2-1.6-3.2-1.6l-0.1,0c-0.3-0.3-0.8-0.4-0.8-0.4l-0.1,0l0-0.1c0,0,0-0.1,0-0.1
		c-0.2-1.6-4.1-1.6-7.1-1.2c-1.9,0.3-2.8,1.2-3.8,2.4c-0.6,0.7-1.3,1.4-2.2,2C37.1,43,35,41.8,35,41.8l0,0l0,0L34.8,41.3z
		 M35.8,42.2L35.8,42.2c1,0.3,1.9,0.3,2.6,0.1c0.8-0.2,1.4-0.5,2.2-0.9c1.4-0.9,3.4-3.1,3.5-3.1l0,0c0.8-0.4,2-0.6,3-0.7
		c1-0.1,1.9-0.1,2.3,0c0.5,0,1,0.1,1.5,0.2c0.4,0.1,0.7,0.2,0.8,0.4c0.2,0.3,0.1,0.4,0,0.5c0,0.1-0.1,0.1-0.1,0.2
		c0,0.1,0.1,0.2,0.3,0.2c0.2,0,0.4,0.1,0.6,0.1c0.4,0,0.5,0.1,0.6,0.3c0,0,0,0,0,0c0.1,0.1,0.2,0.1,0.2,0.1l0,0c0,0,0.1,0,0.1,0
		c0.4,0,1.5,0.1,2.2,0.9c0.8,1,0.7,2,0.7,2l-0.2,0c0,0-0.1-0.2-0.4-0.5c-0.2-0.1-0.3-0.2-0.5-0.2c-0.2,0-0.4,0-0.6,0.1
		c-0.3,0.1-0.5,0.1-0.8,0.1c-0.3,0-0.6-0.1-0.9-0.2c-0.6-0.2-1.2-0.1-1.2-0.1c-0.6,0.1-1.1,0.4-1.8,0.9c-0.7,0.6-1.6,1.5-3,2.9
		c-2.9,2.8-5.3,2.8-5.3,2.8h0c-4.4-0.1-6.7-5.9-6.7-5.9l-0.1-0.2l0.2,0L35.8,42.2z M49,39c0.1,0.2,0.4,0.4,0.6,0.5
		c0.1,0.1,0.2,0.1,0.2,0.2c0,0,0.1,0.1,0.1,0.1c0.1,0.1,0.1,0.1,0.3,0.1c0.2,0,0.4,0,0.6-0.1c0.1-0.1,0.2-0.1,0.3-0.3
		c0-0.1,0-0.3,0-0.3c-0.1-0.1-0.3-0.2-0.6-0.3c-0.1,0-0.5-0.1-0.9-0.1c-0.2,0-0.3,0-0.4,0C49,38.8,49,38.8,49,39
		C49,38.9,49,38.9,49,39"/>
</g>
<g>
	<g>
		<g>
			<path class="st0" d="M70.3,15c0.3,0.3,0.5,0.7,0.6,1.1c0.1,0.4,0.2,0.8,0.2,1.3c0,1.2-0.4,2.2-1.3,3c-0.9,0.8-2,1.2-3.3,1.2
				c-0.6,0-1.2-0.1-1.8-0.3c-0.6-0.2-1.1-0.4-1.6-0.7l-0.4,0.7h-0.8l-0.1-4.7h0.8c0.2,0.6,0.3,1.1,0.6,1.6s0.5,0.9,0.9,1.3
				c0.3,0.4,0.7,0.7,1.2,0.9c0.4,0.2,1,0.3,1.6,0.3c0.4,0,0.8-0.1,1.2-0.2c0.3-0.1,0.6-0.3,0.8-0.5c0.2-0.2,0.4-0.5,0.5-0.7
				c0.1-0.3,0.1-0.6,0.1-1c0-0.5-0.2-1.1-0.5-1.5s-0.8-0.8-1.4-1.1c-0.4-0.2-0.9-0.3-1.4-0.6c-0.5-0.2-1-0.4-1.4-0.6
				c-0.8-0.3-1.4-0.8-1.8-1.4c-0.4-0.6-0.6-1.3-0.6-2.2c0-0.5,0.1-1,0.3-1.5c0.2-0.4,0.5-0.8,0.9-1.2c0.4-0.3,0.8-0.6,1.3-0.8
				s1-0.3,1.6-0.3c0.6,0,1.2,0.1,1.7,0.3c0.5,0.2,1,0.4,1.4,0.7l0.4-0.7h0.8l0.1,4.5h-0.8c-0.1-0.5-0.3-1-0.5-1.5
				c-0.2-0.5-0.4-0.9-0.7-1.3c-0.3-0.4-0.6-0.7-1-0.9c-0.4-0.2-0.9-0.3-1.5-0.3c-0.6,0-1.1,0.2-1.6,0.6c-0.4,0.4-0.6,0.9-0.6,1.4
				c0,0.6,0.1,1.1,0.4,1.5c0.3,0.4,0.7,0.7,1.2,1c0.5,0.2,0.9,0.4,1.4,0.6c0.5,0.2,0.9,0.3,1.3,0.5c0.4,0.2,0.8,0.4,1.1,0.6
				C69.7,14.5,70,14.7,70.3,15z"/>
			<path class="st0" d="M81.2,12.9c0.4,0.4,0.7,1,0.9,1.6c0.2,0.6,0.3,1.3,0.3,2c0,0.8-0.1,1.4-0.4,2.1c-0.3,0.6-0.6,1.1-1,1.6
				c-0.4,0.4-0.9,0.8-1.4,1c-0.5,0.2-1.1,0.4-1.7,0.4c-0.6,0-1-0.1-1.4-0.2c-0.4-0.1-0.7-0.3-0.9-0.5h-0.1v2.9c0,0.2,0,0.4,0.1,0.6
				c0.1,0.2,0.2,0.3,0.4,0.3c0.2,0.1,0.4,0.1,0.7,0.2c0.3,0.1,0.5,0.1,0.7,0.1v0.6h-5.3v-0.6c0.2,0,0.4,0,0.6,0s0.4-0.1,0.5-0.1
				c0.2-0.1,0.3-0.2,0.4-0.3c0.1-0.2,0.1-0.3,0.1-0.6V13.7c0-0.2,0-0.4-0.1-0.6c-0.1-0.2-0.2-0.3-0.4-0.4c-0.1-0.1-0.3-0.1-0.5-0.2
				s-0.4-0.1-0.6-0.1v-0.6l3.2-0.2l0.1,0.1v1.1l0.1,0c0.3-0.4,0.7-0.7,1.2-1c0.5-0.3,1-0.4,1.5-0.4c0.6,0,1.1,0.1,1.6,0.4
				C80.5,12.1,80.9,12.5,81.2,12.9z M79.7,19.7c0.3-0.4,0.4-0.9,0.6-1.4s0.2-1.1,0.2-1.8c0-0.5-0.1-1-0.2-1.5
				c-0.1-0.5-0.3-0.9-0.5-1.3c-0.2-0.4-0.5-0.7-0.9-0.9c-0.4-0.2-0.8-0.3-1.3-0.3c-0.5,0-0.9,0.1-1.2,0.3c-0.3,0.2-0.6,0.5-0.9,0.7
				v5.6c0.1,0.2,0.2,0.4,0.3,0.5c0.1,0.2,0.3,0.3,0.4,0.5c0.2,0.2,0.4,0.3,0.6,0.4s0.5,0.1,0.8,0.1c0.4,0,0.7-0.1,1-0.3
				C79.2,20.3,79.4,20.1,79.7,19.7z"/>
			<path class="st0" d="M91.1,13c0,0.3-0.1,0.6-0.2,0.9c-0.2,0.3-0.4,0.4-0.7,0.4c-0.4,0-0.6-0.1-0.8-0.3S89,13.6,89,13.3
				c0-0.1,0-0.3,0-0.4c0-0.1,0-0.2,0.1-0.3c-0.3,0-0.7,0.1-1.1,0.4s-0.7,0.6-1,1v5.5c0,0.2,0,0.4,0.1,0.5c0.1,0.1,0.2,0.2,0.4,0.3
				c0.2,0.1,0.4,0.1,0.6,0.1c0.3,0,0.5,0.1,0.7,0.1v0.6h-5v-0.6c0.1,0,0.3,0,0.5,0c0.2,0,0.3,0,0.4-0.1c0.2-0.1,0.3-0.2,0.4-0.3
				c0.1-0.1,0.1-0.3,0.1-0.6v-5.9c0-0.2,0-0.4-0.1-0.6c-0.1-0.2-0.2-0.3-0.4-0.5c-0.1-0.1-0.3-0.1-0.4-0.2s-0.3-0.1-0.5-0.1v-0.6
				l3.2-0.2l0.1,0.1v1.3h0c0.4-0.5,0.8-0.9,1.3-1.2c0.5-0.3,0.9-0.4,1.3-0.4c0.4,0,0.7,0.1,1,0.4C91,12.2,91.1,12.5,91.1,13z"/>
			<path class="st0" d="M96.5,21.2h-4.6v-0.6c0.1,0,0.3,0,0.5,0s0.3,0,0.4-0.1c0.2-0.1,0.3-0.2,0.4-0.3c0.1-0.1,0.1-0.3,0.1-0.6
				v-5.9c0-0.2,0-0.4-0.1-0.6c-0.1-0.2-0.2-0.3-0.4-0.4c-0.1-0.1-0.3-0.1-0.5-0.2s-0.4-0.1-0.6-0.1v-0.6l3.3-0.2l0.1,0.1v7.7
				c0,0.2,0,0.4,0.1,0.6c0.1,0.1,0.2,0.3,0.4,0.3c0.1,0.1,0.3,0.1,0.4,0.1c0.1,0,0.3,0.1,0.4,0.1V21.2z M95.3,7.9
				c0,0.4-0.1,0.7-0.4,1c-0.2,0.3-0.5,0.4-0.9,0.4c-0.3,0-0.6-0.1-0.9-0.4c-0.2-0.3-0.4-0.6-0.4-0.9c0-0.4,0.1-0.7,0.4-0.9
				c0.2-0.3,0.5-0.4,0.9-0.4c0.4,0,0.7,0.1,0.9,0.4C95.2,7.3,95.3,7.6,95.3,7.9z"/>
			<path class="st0" d="M108.1,21.2h-4.6v-0.6c0.1,0,0.3,0,0.5,0s0.3,0,0.4-0.1c0.2-0.1,0.3-0.2,0.4-0.3c0.1-0.1,0.1-0.3,0.1-0.6
				v-4.9c0-0.7-0.2-1.2-0.5-1.6c-0.3-0.4-0.7-0.5-1.2-0.5c-0.3,0-0.7,0.1-0.9,0.2c-0.3,0.1-0.5,0.2-0.8,0.4
				c-0.2,0.1-0.4,0.3-0.5,0.5c-0.1,0.2-0.2,0.3-0.3,0.4v5.5c0,0.2,0,0.4,0.1,0.5c0.1,0.1,0.2,0.3,0.4,0.3c0.1,0.1,0.3,0.1,0.4,0.1
				c0.2,0,0.3,0.1,0.5,0.1v0.6h-4.6v-0.6c0.1,0,0.3,0,0.5,0s0.3,0,0.4-0.1c0.2-0.1,0.3-0.2,0.4-0.3c0.1-0.1,0.1-0.3,0.1-0.6v-5.9
				c0-0.2,0-0.4-0.1-0.6c-0.1-0.2-0.2-0.3-0.4-0.4c-0.1-0.1-0.3-0.1-0.4-0.2s-0.3-0.1-0.5-0.1v-0.6l3.2-0.2l0.1,0.1v1.3h0
				c0.2-0.2,0.3-0.3,0.6-0.6s0.4-0.4,0.7-0.5c0.2-0.2,0.5-0.3,0.8-0.4c0.3-0.1,0.7-0.2,1.1-0.2c0.9,0,1.6,0.3,2,0.9
				c0.4,0.6,0.7,1.3,0.7,2.3v4.9c0,0.2,0,0.4,0.1,0.5s0.2,0.2,0.4,0.3c0.2,0.1,0.3,0.1,0.4,0.1s0.3,0,0.5,0.1V21.2z"/>
			<path class="st0" d="M117.4,20.3c0.3,0.2,0.5,0.5,0.6,0.8c0.1,0.3,0.2,0.7,0.2,1.1c0,0.5-0.1,0.9-0.3,1.3c-0.2,0.4-0.5,0.7-0.9,1
				c-0.4,0.3-0.9,0.5-1.5,0.7s-1.3,0.3-2.2,0.3c-1.4,0-2.5-0.2-3.2-0.6c-0.7-0.4-1.1-1-1.1-1.8c0-0.7,0.3-1.2,0.8-1.5
				c0.5-0.4,1.2-0.6,2-0.6v-0.1c-0.2-0.1-0.4-0.1-0.6-0.2c-0.2-0.1-0.4-0.2-0.5-0.3c-0.2-0.1-0.3-0.3-0.4-0.5
				c-0.1-0.2-0.2-0.4-0.2-0.7c0-0.3,0.1-0.7,0.4-0.9c0.2-0.3,0.6-0.5,1.1-0.7v-0.1c-0.6-0.3-1.1-0.7-1.4-1.1c-0.3-0.5-0.5-1-0.5-1.6
				c0-0.9,0.3-1.6,1-2.2c0.7-0.6,1.5-0.9,2.6-0.9c0.3,0,0.6,0,0.9,0.1c0.3,0.1,0.6,0.1,0.9,0.2h3.3v0.9H116v0.1
				c0.2,0.3,0.4,0.6,0.5,0.9c0.1,0.3,0.2,0.7,0.2,1c0,0.8-0.3,1.5-1,2.1c-0.7,0.6-1.5,0.9-2.4,0.9h-1.2c-0.1,0.1-0.3,0.1-0.5,0.3
				c-0.2,0.1-0.2,0.3-0.2,0.5c0,0.2,0.1,0.4,0.2,0.5c0.1,0.1,0.3,0.2,0.5,0.3c0.2,0.1,0.4,0.1,0.6,0.1c0.2,0,0.5,0,0.8,0
				c0.3,0,0.7,0,1.2,0.1s0.8,0.1,1,0.1c0.3,0,0.6,0.1,0.9,0.2C116.9,19.9,117.2,20,117.4,20.3z M116.7,22.6c0-0.4-0.1-0.7-0.3-0.9
				c-0.2-0.2-0.4-0.4-0.8-0.5c-0.2,0-0.5-0.1-1.1-0.1c-0.6,0-1.2,0-1.9,0c-0.7,0.1-1.2,0.4-1.5,0.7c-0.3,0.3-0.4,0.7-0.4,1.2
				c0,0.2,0,0.4,0.1,0.6s0.3,0.4,0.5,0.6c0.2,0.2,0.5,0.3,0.9,0.4c0.4,0.1,0.8,0.2,1.4,0.2c0.9,0,1.7-0.2,2.2-0.5
				C116.4,23.9,116.7,23.3,116.7,22.6z M114.8,14.6c0-0.8-0.2-1.3-0.5-1.8c-0.3-0.4-0.7-0.7-1.3-0.7c-0.3,0-0.6,0.1-0.8,0.2
				c-0.2,0.1-0.4,0.3-0.5,0.5c-0.1,0.2-0.2,0.5-0.3,0.8c-0.1,0.3-0.1,0.6-0.1,0.9c0,0.7,0.2,1.3,0.5,1.7c0.3,0.4,0.7,0.7,1.2,0.7
				c0.6,0,1-0.2,1.3-0.7C114.7,15.9,114.8,15.3,114.8,14.6z"/>
			<path class="st0" d="M133.3,16.4c0,0.7-0.1,1.3-0.3,2c-0.2,0.6-0.5,1.2-0.9,1.6c-0.4,0.5-1,0.9-1.5,1.1s-1.2,0.4-2,0.4
				c-0.6,0-1.2-0.1-1.7-0.3c-0.5-0.2-1-0.6-1.5-1c-0.4-0.4-0.7-1-1-1.6c-0.2-0.6-0.4-1.3-0.4-2.1c0-1.5,0.4-2.7,1.3-3.6
				c0.9-0.9,2-1.4,3.4-1.4c1.3,0,2.4,0.4,3.3,1.3C132.9,13.7,133.3,14.9,133.3,16.4z M131.3,16.4c0-0.5,0-1-0.1-1.5s-0.2-1-0.4-1.4
				c-0.2-0.4-0.5-0.7-0.8-1c-0.3-0.2-0.7-0.4-1.2-0.4c-0.5,0-0.9,0.1-1.3,0.4c-0.4,0.2-0.6,0.6-0.9,1c-0.2,0.4-0.4,0.8-0.4,1.3
				c-0.1,0.5-0.1,1-0.1,1.5c0,0.6,0.1,1.2,0.1,1.7c0.1,0.5,0.3,1,0.5,1.4c0.2,0.4,0.5,0.7,0.8,1c0.3,0.2,0.7,0.4,1.2,0.4
				c0.8,0,1.4-0.4,1.9-1.2C131.1,18.9,131.3,17.8,131.3,16.4z"/>
			<path class="st0" d="M141.8,7.5c0,0.3-0.1,0.5-0.2,0.7s-0.4,0.3-0.7,0.3c-0.2,0-0.4,0-0.5-0.1c-0.2-0.1-0.3-0.2-0.4-0.3
				c-0.1-0.1-0.2-0.3-0.4-0.5c-0.1-0.2-0.2-0.3-0.3-0.4c-0.4,0-0.8,0.3-1,0.9c-0.2,0.6-0.4,1.5-0.4,2.8v1h2.4v0.9h-2.4v6.8
				c0,0.2,0,0.4,0.1,0.5c0.1,0.1,0.2,0.2,0.4,0.3c0.2,0.1,0.4,0.1,0.6,0.1c0.3,0,0.5,0.1,0.7,0.1v0.6h-5v-0.6c0.1,0,0.3,0,0.5,0
				s0.3,0,0.4-0.1c0.2-0.1,0.3-0.2,0.4-0.3c0.1-0.1,0.1-0.3,0.1-0.6v-6.9h-1.9v-0.9h1.9v-0.6c0-1.4,0.4-2.6,1.1-3.5
				c0.7-0.9,1.7-1.3,2.8-1.3c0.6,0,1,0.1,1.3,0.3C141.6,6.9,141.8,7.2,141.8,7.5z"/>
			<path class="st0" d="M157.1,17.2l-0.3,4.1h-10.7v-0.7c0.2,0,0.4,0,0.7-0.1c0.3,0,0.5-0.1,0.6-0.1c0.2-0.1,0.3-0.2,0.4-0.4
				c0.1-0.2,0.1-0.4,0.1-0.6V9.6c0-0.2,0-0.4-0.1-0.6c-0.1-0.2-0.2-0.3-0.4-0.4c-0.1-0.1-0.4-0.2-0.6-0.2c-0.3-0.1-0.5-0.1-0.7-0.1
				V7.6h5.8v0.7c-0.2,0-0.4,0-0.7,0.1c-0.3,0.1-0.5,0.1-0.6,0.2c-0.2,0.1-0.4,0.2-0.4,0.4C150,9.1,150,9.3,150,9.5v9.2
				c0,0.4,0,0.8,0.1,1c0,0.2,0.1,0.4,0.3,0.5c0.1,0.1,0.4,0.2,0.7,0.2c0.3,0,0.7,0.1,1.2,0.1c0.2,0,0.5,0,0.7,0c0.3,0,0.5,0,0.7-0.1
				c0.2,0,0.4-0.1,0.6-0.2c0.2-0.1,0.3-0.2,0.4-0.3c0.3-0.3,0.6-0.7,0.9-1.3c0.3-0.6,0.6-1.1,0.7-1.5H157.1z"/>
			<path class="st0" d="M162.3,21.2h-4.6v-0.6c0.1,0,0.3,0,0.5,0s0.3,0,0.4-0.1c0.2-0.1,0.3-0.2,0.4-0.3c0.1-0.1,0.1-0.3,0.1-0.6
				v-5.9c0-0.2,0-0.4-0.1-0.6c-0.1-0.2-0.2-0.3-0.4-0.4c-0.1-0.1-0.3-0.1-0.5-0.2c-0.2-0.1-0.4-0.1-0.6-0.1v-0.6l3.3-0.2l0.1,0.1
				v7.7c0,0.2,0,0.4,0.1,0.6c0.1,0.1,0.2,0.3,0.4,0.3c0.1,0.1,0.3,0.1,0.4,0.1c0.1,0,0.3,0.1,0.4,0.1V21.2z M161.1,7.9
				c0,0.4-0.1,0.7-0.4,1s-0.5,0.4-0.9,0.4c-0.3,0-0.6-0.1-0.9-0.4c-0.2-0.3-0.4-0.6-0.4-0.9c0-0.4,0.1-0.7,0.4-0.9
				c0.2-0.3,0.5-0.4,0.9-0.4c0.4,0,0.7,0.1,0.9,0.4C161,7.3,161.1,7.6,161.1,7.9z"/>
			<path class="st0" d="M170.6,7.5c0,0.3-0.1,0.5-0.2,0.7s-0.4,0.3-0.7,0.3c-0.2,0-0.4,0-0.5-0.1c-0.2-0.1-0.3-0.2-0.4-0.3
				c-0.1-0.1-0.2-0.3-0.4-0.5c-0.1-0.2-0.2-0.3-0.3-0.4c-0.4,0-0.8,0.3-1,0.9c-0.2,0.6-0.4,1.5-0.4,2.8v1h2.4v0.9h-2.4v6.8
				c0,0.2,0,0.4,0.1,0.5c0.1,0.1,0.2,0.2,0.4,0.3c0.2,0.1,0.4,0.1,0.6,0.1c0.3,0,0.5,0.1,0.7,0.1v0.6h-5v-0.6c0.1,0,0.3,0,0.5,0
				s0.3,0,0.4-0.1c0.2-0.1,0.3-0.2,0.4-0.3c0.1-0.1,0.1-0.3,0.1-0.6v-6.9h-1.9v-0.9h1.9v-0.6c0-1.4,0.4-2.6,1.1-3.5
				c0.7-0.9,1.7-1.3,2.8-1.3c0.6,0,1,0.1,1.3,0.3C170.4,6.9,170.6,7.2,170.6,7.5z"/>
			<path class="st0" d="M178.3,19c-0.4,0.8-0.9,1.4-1.6,1.8c-0.7,0.4-1.4,0.7-2.3,0.7c-0.8,0-1.4-0.1-2-0.4c-0.6-0.3-1-0.6-1.4-1.1
				c-0.4-0.5-0.6-1-0.8-1.6c-0.2-0.6-0.3-1.3-0.3-2c0-0.6,0.1-1.2,0.3-1.8c0.2-0.6,0.5-1.1,0.9-1.6c0.4-0.5,0.8-0.8,1.4-1.1
				c0.5-0.3,1.1-0.4,1.8-0.4c0.7,0,1.3,0.1,1.8,0.3c0.5,0.2,0.9,0.5,1.2,0.9c0.3,0.4,0.5,0.8,0.7,1.3c0.1,0.5,0.2,1,0.2,1.6v0.6
				h-6.3c0,0.6,0.1,1.2,0.2,1.7c0.1,0.5,0.3,1,0.6,1.3c0.3,0.4,0.6,0.7,1,0.9s0.9,0.3,1.4,0.3c0.6,0,1.1-0.1,1.5-0.4
				c0.4-0.3,0.8-0.7,1.2-1.4L178.3,19z M176.2,15.4c0-0.4,0-0.7-0.1-1.2c-0.1-0.4-0.2-0.8-0.3-1c-0.1-0.3-0.3-0.5-0.6-0.7
				c-0.3-0.2-0.6-0.3-1-0.3c-0.7,0-1.2,0.3-1.7,0.8c-0.4,0.6-0.7,1.3-0.7,2.3H176.2z"/>
		</g>
		<g>
			<path class="st0" d="M128.3,27.3h-0.6c-0.1-0.4-0.3-0.8-0.7-1.3c-0.3-0.4-0.6-0.7-1-0.7c-0.2,0-0.3,0-0.5,0c-0.2,0-0.5,0-0.7,0
				h-1.8v4.3h1.2c0.4,0,0.7,0,0.9-0.1c0.2-0.1,0.4-0.2,0.5-0.4c0.1-0.1,0.2-0.3,0.3-0.5c0.1-0.2,0.1-0.5,0.2-0.7h0.6V32h-0.6
				c0-0.2-0.1-0.5-0.2-0.7s-0.2-0.5-0.3-0.6c-0.1-0.2-0.3-0.3-0.6-0.4c-0.2-0.1-0.5-0.1-0.8-0.1h-1.2v3.6c0,0.2,0,0.3,0.1,0.4
				c0.1,0.1,0.2,0.2,0.3,0.3c0.1,0,0.2,0.1,0.5,0.1c0.2,0.1,0.4,0.1,0.6,0.1v0.5H120v-0.5c0.1,0,0.3,0,0.6,0c0.2,0,0.4-0.1,0.5-0.1
				c0.1-0.1,0.3-0.2,0.3-0.3c0.1-0.1,0.1-0.3,0.1-0.5v-7.6c0-0.2,0-0.3-0.1-0.4c-0.1-0.1-0.2-0.2-0.3-0.3c-0.1-0.1-0.3-0.1-0.5-0.2
				c-0.2-0.1-0.4-0.1-0.5-0.1v-0.5h8.3V27.3z"/>
			<path class="st0" d="M135.6,33.5c-0.3,0.6-0.7,1.1-1.2,1.4c-0.5,0.3-1.1,0.5-1.8,0.5c-0.6,0-1.1-0.1-1.6-0.3
				c-0.4-0.2-0.8-0.5-1.1-0.9c-0.3-0.4-0.5-0.8-0.6-1.3c-0.1-0.5-0.2-1-0.2-1.5c0-0.5,0.1-0.9,0.2-1.4c0.2-0.5,0.4-0.9,0.7-1.2
				c0.3-0.4,0.6-0.6,1.1-0.9c0.4-0.2,0.9-0.3,1.4-0.3c0.5,0,1,0.1,1.4,0.3c0.4,0.2,0.7,0.4,0.9,0.7c0.2,0.3,0.4,0.6,0.5,1
				c0.1,0.4,0.2,0.8,0.2,1.2v0.5h-4.9c0,0.5,0,0.9,0.1,1.3c0.1,0.4,0.2,0.7,0.4,1c0.2,0.3,0.4,0.5,0.8,0.7c0.3,0.2,0.7,0.3,1.1,0.3
				c0.4,0,0.8-0.1,1.1-0.3c0.3-0.2,0.6-0.6,0.9-1.1L135.6,33.5z M133.9,30.7c0-0.3,0-0.6-0.1-0.9c0-0.3-0.1-0.6-0.2-0.8
				c-0.1-0.2-0.3-0.4-0.5-0.6c-0.2-0.1-0.5-0.2-0.8-0.2c-0.5,0-1,0.2-1.3,0.7c-0.3,0.4-0.5,1-0.6,1.8H133.9z"/>
			<path class="st0" d="M139.9,35.3h-3.6v-0.5c0.1,0,0.2,0,0.4,0c0.1,0,0.2,0,0.3-0.1c0.1,0,0.2-0.1,0.3-0.2s0.1-0.3,0.1-0.4v-8.5
				c0-0.2,0-0.3-0.1-0.5c-0.1-0.2-0.2-0.3-0.3-0.4c-0.1-0.1-0.3-0.1-0.5-0.2c-0.2-0.1-0.4-0.1-0.6-0.1v-0.5l2.8-0.2l0.1,0.1v10.1
				c0,0.2,0,0.3,0.1,0.4c0.1,0.1,0.2,0.2,0.3,0.3c0.1,0.1,0.2,0.1,0.3,0.1c0.1,0,0.2,0,0.4,0.1V35.3z"/>
			<path class="st0" d="M144.2,35.3h-3.6v-0.5c0.1,0,0.2,0,0.4,0c0.1,0,0.2,0,0.3-0.1c0.1,0,0.2-0.1,0.3-0.2s0.1-0.3,0.1-0.4v-8.5
				c0-0.2,0-0.3-0.1-0.5c-0.1-0.2-0.2-0.3-0.3-0.4c-0.1-0.1-0.3-0.1-0.5-0.2c-0.2-0.1-0.4-0.1-0.6-0.1v-0.5l2.8-0.2l0.1,0.1v10.1
				c0,0.2,0,0.3,0.1,0.4c0.1,0.1,0.2,0.2,0.3,0.3c0.1,0.1,0.2,0.1,0.3,0.1c0.1,0,0.2,0,0.4,0.1V35.3z"/>
			<path class="st0" d="M152.3,31.5c0,0.5-0.1,1-0.2,1.5c-0.2,0.5-0.4,0.9-0.7,1.3c-0.3,0.4-0.7,0.7-1.2,0.9s-1,0.3-1.5,0.3
				c-0.5,0-0.9-0.1-1.3-0.3c-0.4-0.2-0.8-0.4-1.1-0.8c-0.3-0.3-0.6-0.7-0.8-1.2c-0.2-0.5-0.3-1-0.3-1.6c0-1.1,0.3-2.1,1-2.8
				c0.7-0.7,1.5-1.1,2.6-1.1c1,0,1.9,0.3,2.6,1C152,29.4,152.3,30.4,152.3,31.5z M150.8,31.5c0-0.4,0-0.8-0.1-1.2
				c-0.1-0.4-0.2-0.8-0.3-1.1c-0.2-0.3-0.4-0.6-0.6-0.7c-0.3-0.2-0.6-0.3-0.9-0.3c-0.4,0-0.7,0.1-1,0.3c-0.3,0.2-0.5,0.4-0.7,0.8
				c-0.2,0.3-0.3,0.6-0.3,1c-0.1,0.4-0.1,0.8-0.1,1.1c0,0.5,0,0.9,0.1,1.3c0.1,0.4,0.2,0.8,0.4,1.1s0.4,0.6,0.6,0.7
				c0.3,0.2,0.6,0.3,1,0.3c0.6,0,1.1-0.3,1.5-0.9C150.6,33.4,150.8,32.6,150.8,31.5z"/>
			<path class="st0" d="M164.4,28.4c-0.2,0-0.4,0.1-0.7,0.3c-0.2,0.2-0.4,0.4-0.5,0.7c-0.2,0.7-0.5,1.4-0.7,2.1
				c-0.2,0.7-0.5,1.4-0.7,2.2c-0.1,0.3-0.2,0.5-0.3,0.8c-0.1,0.3-0.2,0.6-0.2,0.9h-0.6l-2-5.4l-2,5.4H156c-0.4-1.1-0.7-2.2-1.1-3.3
				c-0.4-1.1-0.7-2-0.9-2.8c-0.1-0.2-0.2-0.4-0.5-0.6c-0.2-0.1-0.4-0.2-0.6-0.2v-0.5h3.3v0.5c-0.2,0-0.3,0-0.5,0.1
				c-0.2,0.1-0.3,0.1-0.3,0.2c0,0,0,0.1,0,0.1c0,0.1,0,0.1,0.1,0.2c0.2,0.5,0.3,1.1,0.5,1.7c0.2,0.6,0.5,1.5,0.8,2.5l1.9-5.3h0.7
				l1.9,5.2c0.2-0.7,0.4-1.3,0.6-1.9c0.2-0.6,0.4-1.2,0.6-1.8c0-0.1,0.1-0.2,0.1-0.4c0-0.1,0-0.2,0-0.3c0-0.1,0-0.2-0.1-0.2
				c-0.1-0.1-0.2-0.1-0.3-0.2c-0.1,0-0.2-0.1-0.3-0.1c-0.1,0-0.2,0-0.3,0v-0.5h2.8V28.4z"/>
			<path class="st0" d="M169.5,31.7c0.2,0.2,0.4,0.4,0.5,0.6c0.1,0.2,0.2,0.5,0.2,0.9c0,0.7-0.3,1.2-0.8,1.7c-0.5,0.4-1.2,0.6-2,0.6
				c-0.4,0-0.8-0.1-1.2-0.2c-0.4-0.2-0.6-0.3-0.8-0.4l-0.1,0.5h-0.6l-0.1-2.6h0.5c0,0.2,0.1,0.4,0.3,0.7c0.1,0.3,0.3,0.5,0.5,0.7
				c0.2,0.2,0.4,0.4,0.7,0.6c0.3,0.2,0.6,0.2,0.9,0.2c0.5,0,0.8-0.1,1.1-0.3s0.4-0.5,0.4-0.9c0-0.2,0-0.4-0.1-0.5
				c-0.1-0.2-0.2-0.3-0.4-0.4c-0.2-0.1-0.4-0.2-0.6-0.3c-0.2-0.1-0.5-0.2-0.8-0.3c-0.2-0.1-0.5-0.2-0.8-0.3
				c-0.3-0.1-0.5-0.3-0.7-0.4c-0.2-0.2-0.4-0.4-0.5-0.6c-0.1-0.3-0.2-0.6-0.2-0.9c0-0.6,0.2-1.1,0.7-1.5c0.4-0.4,1-0.6,1.8-0.6
				c0.3,0,0.6,0,0.9,0.1c0.3,0.1,0.5,0.2,0.7,0.3l0.2-0.4h0.5l0.1,2.4h-0.5c-0.1-0.5-0.3-1-0.7-1.3c-0.3-0.3-0.8-0.5-1.3-0.5
				c-0.4,0-0.7,0.1-1,0.3c-0.2,0.2-0.4,0.5-0.4,0.7c0,0.2,0,0.4,0.1,0.6c0.1,0.1,0.2,0.3,0.3,0.4c0.1,0.1,0.3,0.2,0.6,0.3
				c0.2,0.1,0.5,0.2,0.8,0.3c0.3,0.1,0.6,0.2,0.9,0.4C169.1,31.3,169.3,31.5,169.5,31.7z"/>
			<path class="st0" d="M179.3,35.3h-3.6v-0.5c0.1,0,0.2,0,0.4,0s0.3,0,0.3-0.1c0.1,0,0.2-0.1,0.3-0.2c0.1-0.1,0.1-0.3,0.1-0.4v-3.8
				c0-0.5-0.1-0.9-0.4-1.2c-0.2-0.3-0.5-0.4-0.9-0.4c-0.3,0-0.5,0-0.7,0.1c-0.2,0.1-0.4,0.2-0.6,0.3c-0.2,0.1-0.3,0.2-0.4,0.4
				c-0.1,0.1-0.2,0.2-0.2,0.3v4.2c0,0.2,0,0.3,0.1,0.4c0.1,0.1,0.2,0.2,0.3,0.3c0.1,0.1,0.2,0.1,0.3,0.1c0.1,0,0.2,0,0.4,0.1v0.5
				h-3.6v-0.5c0.1,0,0.2,0,0.4,0c0.1,0,0.2,0,0.3-0.1c0.1,0,0.2-0.1,0.3-0.2s0.1-0.3,0.1-0.4v-8.6c0-0.2,0-0.3-0.1-0.5
				c-0.1-0.2-0.2-0.3-0.3-0.4c-0.1-0.1-0.2-0.1-0.5-0.1c-0.2,0-0.4,0-0.5-0.1v-0.5l2.7-0.2l0.1,0.1V29h0c0.2-0.2,0.3-0.3,0.4-0.4
				c0.1-0.1,0.3-0.3,0.5-0.4c0.2-0.1,0.4-0.2,0.7-0.3c0.3-0.1,0.5-0.1,0.9-0.1c0.7,0,1.2,0.2,1.5,0.6c0.4,0.4,0.5,1,0.5,1.8v3.8
				c0,0.2,0,0.3,0.1,0.4c0.1,0.1,0.2,0.2,0.3,0.2c0.1,0,0.2,0.1,0.3,0.1c0.1,0,0.2,0,0.4,0V35.3z"/>
			<path class="st0" d="M183.7,35.3h-3.6v-0.5c0.1,0,0.2,0,0.4,0c0.1,0,0.2,0,0.3-0.1c0.1,0,0.2-0.1,0.3-0.2
				c0.1-0.1,0.1-0.3,0.1-0.4v-4.5c0-0.2,0-0.3-0.1-0.4c-0.1-0.1-0.2-0.2-0.3-0.3c-0.1-0.1-0.2-0.1-0.4-0.2c-0.2,0-0.3-0.1-0.5-0.1
				V28l2.6-0.2l0.1,0.1v6c0,0.2,0,0.3,0.1,0.4c0.1,0.1,0.2,0.2,0.3,0.3c0.1,0,0.2,0.1,0.3,0.1c0.1,0,0.2,0,0.3,0.1V35.3z
				 M182.8,24.9c0,0.3-0.1,0.5-0.3,0.7c-0.2,0.2-0.4,0.3-0.7,0.3c-0.3,0-0.5-0.1-0.7-0.3c-0.2-0.2-0.3-0.4-0.3-0.7
				c0-0.3,0.1-0.5,0.3-0.7c0.2-0.2,0.4-0.3,0.7-0.3c0.3,0,0.5,0.1,0.7,0.3C182.7,24.4,182.8,24.7,182.8,24.9z"/>
			<path class="st0" d="M191.3,28.8c0.3,0.3,0.5,0.8,0.7,1.2c0.2,0.5,0.2,1,0.2,1.6c0,0.6-0.1,1.1-0.3,1.6c-0.2,0.5-0.4,0.9-0.8,1.2
				c-0.3,0.3-0.7,0.6-1.1,0.8s-0.8,0.3-1.3,0.3c-0.4,0-0.8-0.1-1.1-0.1s-0.5-0.2-0.7-0.4H187v2.2c0,0.2,0,0.3,0.1,0.4
				s0.2,0.2,0.3,0.3c0.1,0,0.3,0.1,0.5,0.1c0.2,0,0.4,0.1,0.5,0.1v0.5h-4.1v-0.5c0.2,0,0.3,0,0.4,0c0.1,0,0.3,0,0.4-0.1
				c0.1-0.1,0.3-0.1,0.3-0.3c0.1-0.1,0.1-0.3,0.1-0.4v-7.8c0-0.1,0-0.3-0.1-0.4c-0.1-0.1-0.2-0.3-0.3-0.3c-0.1-0.1-0.2-0.1-0.4-0.1
				c-0.2,0-0.3-0.1-0.5-0.1V28l2.5-0.2l0.1,0.1v0.8l0.1,0c0.3-0.3,0.6-0.5,1-0.7c0.4-0.2,0.8-0.3,1.1-0.3c0.5,0,0.9,0.1,1.3,0.3
				C190.7,28.2,191.1,28.4,191.3,28.8z M190.1,34.1c0.2-0.3,0.3-0.7,0.4-1.1s0.1-0.9,0.1-1.4c0-0.4,0-0.7-0.1-1.1
				c-0.1-0.4-0.2-0.7-0.4-1c-0.2-0.3-0.4-0.5-0.7-0.7c-0.3-0.2-0.6-0.3-1-0.3c-0.4,0-0.7,0.1-0.9,0.2c-0.3,0.2-0.5,0.4-0.7,0.6v4.3
				c0,0.1,0.1,0.3,0.2,0.4c0.1,0.1,0.2,0.3,0.3,0.4c0.2,0.1,0.3,0.2,0.5,0.3c0.2,0.1,0.4,0.1,0.7,0.1c0.3,0,0.5-0.1,0.8-0.2
				C189.7,34.5,190,34.3,190.1,34.1z"/>
		</g>
	</g>
	<g>
		<path class="st1" d="M89.8,42.8h-0.4l-0.5-1.9h0.8L89.8,42.8z M91.2,42.8h-0.4l-0.5-1.9H91L91.2,42.8z"/>
		<path class="st1" d="M93.9,46.3c-0.6,0-1.1-0.2-1.5-0.5s-0.5-0.8-0.5-1.4c0-0.5,0.1-0.9,0.2-1.3c0.1-0.4,0.3-0.8,0.6-1.1
			c0.3-0.3,0.6-0.5,1-0.7c0.4-0.2,0.8-0.3,1.3-0.3c0.3,0,0.6,0,0.8,0.1c0.3,0.1,0.5,0.2,0.8,0.3l-0.2,0.8h-0.1
			c-0.1-0.1-0.2-0.1-0.2-0.2c-0.1-0.1-0.2-0.1-0.3-0.2c-0.1-0.1-0.3-0.1-0.4-0.2c-0.2,0-0.4-0.1-0.6-0.1c-0.3,0-0.6,0.1-0.9,0.2
			c-0.3,0.1-0.5,0.3-0.7,0.6c-0.2,0.2-0.3,0.5-0.5,0.8c-0.1,0.3-0.2,0.7-0.2,1.1c0,0.5,0.1,0.8,0.4,1.1s0.6,0.4,1.1,0.4
			c0.2,0,0.4,0,0.6-0.1c0.2,0,0.4-0.1,0.5-0.2c0.1-0.1,0.3-0.1,0.4-0.2c0.1-0.1,0.2-0.1,0.3-0.2h0l-0.2,0.8
			c-0.2,0.1-0.5,0.2-0.8,0.3C94.5,46.2,94.2,46.3,93.9,46.3z"/>
		<path class="st1" d="M100.2,43.3c0,0.1,0,0.1,0,0.2c0,0.1,0,0.2,0,0.2l-0.6,2.5H99l0.5-2.2c0-0.1,0-0.2,0.1-0.3s0-0.2,0-0.3
			c0-0.2,0-0.3-0.1-0.4s-0.3-0.1-0.5-0.1c-0.2,0-0.4,0-0.6,0.1s-0.4,0.2-0.6,0.3l-0.7,2.8h-0.6l1.2-5.3h0.6l-0.4,1.9
			c0.2-0.2,0.5-0.3,0.7-0.4c0.2-0.1,0.4-0.1,0.7-0.1c0.3,0,0.6,0.1,0.8,0.3C100.1,42.7,100.2,42.9,100.2,43.3z"/>
		<path class="st1" d="M103.3,45.8c-0.1,0-0.1,0.1-0.3,0.2s-0.2,0.1-0.3,0.2c-0.1,0.1-0.2,0.1-0.4,0.1s-0.3,0.1-0.5,0.1
			c-0.3,0-0.5-0.1-0.7-0.3s-0.3-0.4-0.3-0.7c0-0.3,0.1-0.6,0.2-0.8c0.1-0.2,0.3-0.4,0.6-0.5c0.3-0.1,0.6-0.2,0.9-0.3
			c0.4-0.1,0.8-0.1,1.2-0.1c0-0.1,0-0.1,0-0.2c0,0,0-0.1,0-0.1c0-0.1,0-0.2-0.1-0.3s-0.1-0.1-0.2-0.2c-0.1,0-0.2-0.1-0.3-0.1
			c-0.1,0-0.2,0-0.4,0c-0.2,0-0.4,0-0.7,0.1s-0.5,0.1-0.6,0.2h0l0.1-0.6c0.1,0,0.3-0.1,0.6-0.1c0.3,0,0.5-0.1,0.7-0.1
			c0.5,0,0.8,0.1,1.1,0.2c0.2,0.1,0.4,0.4,0.4,0.7c0,0.1,0,0.1,0,0.2c0,0.1,0,0.1,0,0.2l-0.6,2.6h-0.6L103.3,45.8z M103.6,44.2
			c-0.4,0-0.7,0-0.9,0.1s-0.5,0.1-0.7,0.2c-0.2,0.1-0.3,0.2-0.4,0.3s-0.1,0.3-0.1,0.5c0,0.2,0.1,0.3,0.2,0.4
			c0.1,0.1,0.3,0.1,0.5,0.1c0.2,0,0.4,0,0.6-0.1c0.2-0.1,0.4-0.2,0.6-0.3L103.6,44.2z"/>
		<path class="st1" d="M108.9,43.3c0,0.1,0,0.1,0,0.2c0,0.1,0,0.2,0,0.2l-0.6,2.5h-0.6l0.5-2.2c0-0.1,0-0.2,0.1-0.3
			c0-0.1,0-0.2,0-0.3c0-0.2,0-0.3-0.1-0.4s-0.3-0.1-0.5-0.1c-0.2,0-0.4,0-0.6,0.1s-0.4,0.2-0.6,0.3l-0.7,2.8h-0.6l0.9-3.8h0.6
			l-0.1,0.4c0.2-0.2,0.5-0.3,0.7-0.4c0.2-0.1,0.4-0.1,0.7-0.1c0.3,0,0.6,0.1,0.8,0.3C108.8,42.7,108.9,42.9,108.9,43.3z"/>
		<path class="st1" d="M113.4,42.4l-0.8,3.4c-0.2,0.6-0.4,1.1-0.7,1.4c-0.3,0.3-0.8,0.4-1.4,0.4c-0.2,0-0.4,0-0.6,0
			s-0.4-0.1-0.5-0.1l0.1-0.6h0c0.1,0.1,0.3,0.1,0.5,0.2s0.4,0.1,0.6,0.1c0.2,0,0.4,0,0.6-0.1c0.2-0.1,0.3-0.1,0.4-0.2
			c0.1-0.1,0.2-0.2,0.2-0.3c0.1-0.1,0.1-0.3,0.1-0.4l0.1-0.3c-0.2,0.2-0.4,0.3-0.6,0.3c-0.2,0.1-0.4,0.1-0.7,0.1
			c-0.4,0-0.7-0.1-0.9-0.3c-0.2-0.2-0.3-0.5-0.3-1c0-0.3,0.1-0.7,0.2-1c0.1-0.3,0.3-0.6,0.5-0.8c0.2-0.2,0.4-0.4,0.7-0.6
			c0.3-0.1,0.5-0.2,0.9-0.2c0.2,0,0.4,0,0.6,0.1s0.3,0.1,0.5,0.2l0.1-0.2H113.4z M112.7,43.1c-0.1-0.1-0.3-0.1-0.5-0.2
			c-0.2,0-0.3-0.1-0.5-0.1c-0.2,0-0.4,0.1-0.6,0.2c-0.2,0.1-0.3,0.2-0.5,0.4c-0.1,0.2-0.2,0.4-0.3,0.6c-0.1,0.2-0.1,0.5-0.1,0.7
			c0,0.3,0.1,0.5,0.2,0.6c0.1,0.1,0.3,0.2,0.6,0.2c0.2,0,0.4,0,0.6-0.1c0.2-0.1,0.4-0.2,0.6-0.3L112.7,43.1z"/>
		<path class="st1" d="M115.4,42.4l-0.9,3.8h-0.6l0.9-3.8H115.4z M115.7,41.1l-0.2,0.7h-0.7l0.2-0.7H115.7z"/>
		<path class="st1" d="M119.6,43.3c0,0.1,0,0.1,0,0.2c0,0.1,0,0.2,0,0.2l-0.6,2.5h-0.6l0.5-2.2c0-0.1,0-0.2,0.1-0.3
			c0-0.1,0-0.2,0-0.3c0-0.2,0-0.3-0.1-0.4c-0.1-0.1-0.3-0.1-0.5-0.1c-0.2,0-0.4,0-0.6,0.1s-0.4,0.2-0.6,0.3l-0.7,2.8h-0.6l0.9-3.8
			h0.6l-0.1,0.4c0.2-0.2,0.5-0.3,0.7-0.4c0.2-0.1,0.4-0.1,0.7-0.1c0.3,0,0.6,0.1,0.8,0.3C119.5,42.7,119.6,42.9,119.6,43.3z"/>
		<path class="st1" d="M124.1,42.4l-0.8,3.4c-0.2,0.6-0.4,1.1-0.7,1.4s-0.8,0.4-1.4,0.4c-0.2,0-0.4,0-0.6,0s-0.4-0.1-0.5-0.1
			l0.1-0.6h0c0.1,0.1,0.3,0.1,0.5,0.2c0.2,0.1,0.4,0.1,0.6,0.1c0.2,0,0.4,0,0.6-0.1c0.2-0.1,0.3-0.1,0.4-0.2
			c0.1-0.1,0.2-0.2,0.2-0.3c0.1-0.1,0.1-0.3,0.1-0.4l0.1-0.3c-0.2,0.2-0.4,0.3-0.6,0.3c-0.2,0.1-0.4,0.1-0.7,0.1
			c-0.4,0-0.7-0.1-0.9-0.3c-0.2-0.2-0.3-0.5-0.3-1c0-0.3,0.1-0.7,0.2-1c0.1-0.3,0.3-0.6,0.5-0.8c0.2-0.2,0.4-0.4,0.7-0.6
			c0.3-0.1,0.5-0.2,0.9-0.2c0.2,0,0.4,0,0.6,0.1c0.2,0,0.3,0.1,0.4,0.2l0.1-0.2H124.1z M123.4,43.1c-0.1-0.1-0.3-0.1-0.5-0.2
			c-0.2,0-0.3-0.1-0.5-0.1c-0.2,0-0.4,0.1-0.6,0.2c-0.2,0.1-0.3,0.2-0.5,0.4c-0.1,0.2-0.2,0.4-0.3,0.6c-0.1,0.2-0.1,0.5-0.1,0.7
			c0,0.3,0.1,0.5,0.2,0.6c0.1,0.1,0.3,0.2,0.6,0.2c0.2,0,0.4,0,0.6-0.1c0.2-0.1,0.4-0.2,0.6-0.3L123.4,43.1z"/>
		<path class="st1" d="M129.9,42.4l-0.1,0.5h-1.3l-0.4,1.8c0,0.1,0,0.2-0.1,0.3s0,0.2,0,0.3c0,0.2,0,0.3,0.1,0.4
			c0.1,0.1,0.2,0.1,0.5,0.1c0.1,0,0.2,0,0.3,0c0.1,0,0.2-0.1,0.3-0.1h0l-0.1,0.6c-0.1,0-0.3,0.1-0.4,0.1s-0.3,0-0.4,0
			c-0.3,0-0.6-0.1-0.7-0.2s-0.3-0.4-0.3-0.7c0-0.1,0-0.1,0-0.2c0-0.1,0-0.2,0-0.2l0.5-2.1h-0.4l0.1-0.5h0.4l0.3-1.1h0.6l-0.3,1.1
			H129.9z"/>
		<path class="st1" d="M133.6,43.3c0,0.1,0,0.1,0,0.2c0,0.1,0,0.2,0,0.2l-0.6,2.5h-0.6l0.5-2.2c0-0.1,0-0.2,0.1-0.3s0-0.2,0-0.3
			c0-0.2,0-0.3-0.1-0.4s-0.3-0.1-0.5-0.1c-0.2,0-0.4,0-0.6,0.1s-0.4,0.2-0.6,0.3l-0.7,2.8h-0.6l1.2-5.3h0.6l-0.4,1.9
			c0.2-0.2,0.5-0.3,0.7-0.4c0.2-0.1,0.4-0.1,0.7-0.1c0.3,0,0.6,0.1,0.8,0.3C133.5,42.7,133.6,42.9,133.6,43.3z"/>
		<path class="st1" d="M136,46.3c-0.5,0-0.9-0.1-1.2-0.4c-0.3-0.2-0.5-0.6-0.5-1.1c0-0.7,0.2-1.3,0.7-1.8s1-0.8,1.6-0.8
			c0.4,0,0.8,0.1,1,0.3c0.2,0.2,0.3,0.5,0.3,0.9c0,0.1,0,0.2,0,0.3c0,0.1-0.1,0.3-0.1,0.5H135c0,0.1,0,0.1,0,0.2c0,0.1,0,0.1,0,0.2
			c0,0.3,0.1,0.6,0.3,0.8s0.5,0.3,0.8,0.3c0.3,0,0.5,0,0.8-0.1s0.5-0.2,0.7-0.3h0l-0.1,0.7c-0.1,0-0.2,0.1-0.3,0.1
			c-0.1,0-0.2,0.1-0.3,0.1c-0.1,0-0.3,0.1-0.4,0.1S136.2,46.3,136,46.3z M137.3,43.9c0-0.1,0-0.1,0-0.2c0,0,0-0.1,0-0.2
			c0-0.2-0.1-0.4-0.2-0.6c-0.1-0.1-0.3-0.2-0.6-0.2c-0.3,0-0.6,0.1-0.9,0.3c-0.2,0.2-0.4,0.5-0.5,0.8H137.3z"/>
		<path class="st1" d="M147.9,41.1l-2.4,5.1h-0.8l-0.2-4.2l-2,4.2h-0.8l-0.2-5.1h0.7l0.1,4.2l2-4.2h0.7l0.1,4.3l2-4.3H147.9z"/>
		<path class="st1" d="M151.5,43.7c0,0.3-0.1,0.7-0.2,1s-0.3,0.6-0.4,0.8c-0.2,0.2-0.4,0.4-0.7,0.6s-0.6,0.2-0.9,0.2
			c-0.5,0-0.8-0.1-1.1-0.4s-0.4-0.6-0.4-1.1c0-0.3,0.1-0.7,0.2-1s0.3-0.6,0.4-0.8c0.2-0.2,0.4-0.4,0.7-0.6c0.3-0.1,0.6-0.2,0.9-0.2
			c0.4,0,0.8,0.1,1,0.4S151.5,43.3,151.5,43.7z M150.5,45.2c0.1-0.2,0.2-0.4,0.3-0.6c0.1-0.2,0.1-0.5,0.1-0.8c0-0.3-0.1-0.6-0.2-0.7
			s-0.4-0.2-0.6-0.2c-0.2,0-0.4,0.1-0.6,0.2c-0.2,0.1-0.3,0.3-0.5,0.4c-0.1,0.2-0.2,0.4-0.3,0.6c-0.1,0.2-0.1,0.5-0.1,0.8
			c0,0.3,0.1,0.6,0.2,0.7c0.2,0.2,0.4,0.3,0.7,0.3c0.2,0,0.4-0.1,0.6-0.2S150.3,45.4,150.5,45.2z"/>
		<path class="st1" d="M155.1,43.1L155.1,43.1c-0.1,0-0.2,0-0.3,0c-0.1,0-0.2,0-0.3,0c-0.2,0-0.4,0-0.6,0.1
			c-0.2,0.1-0.4,0.2-0.6,0.3l-0.6,2.7H152l0.9-3.8h0.6l-0.1,0.6c0.3-0.2,0.6-0.4,0.8-0.4s0.4-0.1,0.6-0.1c0.1,0,0.2,0,0.2,0
			c0,0,0.1,0,0.2,0L155.1,43.1z"/>
		<path class="st1" d="M156.9,40.9l-1.2,5.3H155l1.2-5.3H156.9z"/>
		<path class="st1" d="M161.2,40.9l-1.2,5.3h-0.6l0.1-0.4c-0.3,0.2-0.5,0.3-0.7,0.4s-0.4,0.1-0.6,0.1c-0.4,0-0.6-0.1-0.9-0.3
			c-0.2-0.2-0.3-0.6-0.3-1c0-0.4,0.1-0.7,0.2-1c0.1-0.3,0.3-0.6,0.5-0.9c0.2-0.2,0.4-0.4,0.7-0.6c0.3-0.1,0.5-0.2,0.8-0.2
			c0.2,0,0.4,0,0.6,0.1c0.2,0,0.3,0.1,0.5,0.2l0.4-1.7H161.2z M160.1,43.1c-0.2-0.1-0.3-0.1-0.4-0.2c-0.1,0-0.3-0.1-0.5-0.1
			c-0.2,0-0.4,0.1-0.6,0.2s-0.3,0.3-0.5,0.5c-0.1,0.2-0.2,0.4-0.3,0.7c-0.1,0.3-0.1,0.5-0.1,0.7c0,0.3,0.1,0.5,0.2,0.6
			c0.1,0.1,0.3,0.2,0.6,0.2c0.2,0,0.4,0,0.6-0.1c0.2-0.1,0.4-0.2,0.6-0.3L160.1,43.1z"/>
		<path class="st1" d="M163.8,40.9l-1.4,1.9h-0.5l1-1.9H163.8z M165.1,40.9l-1.4,1.9h-0.5l1-1.9H165.1z"/>
	</g>
</g>
</svg>
